<svg aria-hidden="true" style="position: absolute; width: 0; height: 0; overflow: hidden;" version="1.1" xmlns="http://www.w3.org/2000/svg" xmlns:xlink="http://www.w3.org/1999/xlink">
<defs>
<symbol id="icon-search" viewBox="0 0 16 16">
<path d="M15.56 15.56c-0.587 0.587-1.538 0.587-2.125 0l-2.652-2.652c-1.090 0.699-2.379 1.116-3.771 1.116-3.872 0-7.012-3.139-7.012-7.012s3.14-7.012 7.012-7.012c3.873 0 7.012 3.139 7.012 7.012 0 1.391-0.417 2.68-1.116 3.771l2.652 2.652c0.587 0.587 0.587 1.538 0 2.125zM7.012 2.003c-2.766 0-5.009 2.242-5.009 5.009s2.243 5.009 5.009 5.009c2.766 0 5.009-2.242 5.009-5.009s-2.242-5.009-5.009-5.009z"></path>
</symbol>
<symbol id="icon-cart" viewBox="0 0 16 16">
<path d="M0.043 2.7l1.457 5.8c0 0.069 0.014 0.135 0.039 0.194 0.051 0.12 0.147 0.216 0.266 0.267 0.060 0.025 0.126 0.039 0.195 0.039h9.5l-0.4 2h-8.6c-0.276 0-0.5 0.223-0.5 0.5s0.224 0.5 0.5 0.5h9c0.277 0 0.5-0.223 0.5-0.5l1.9-9.5h1.6c0.276 0 0.5-0.224 0.5-0.5s-0.224-0.5-0.5-0.5h-2c-0.277 0-0.5 0.224-0.5 0.5l-0.1 0.5h-12.4c-0.277 0-0.5 0.224-0.5 0.5 0 0.071 0.016 0.139 0.043 0.2zM11.7 8h-1.7v-5h2.7l-1 5zM7 3h2.5v5h-2.5v-5zM4 3h2.5v5h-2.5v-5zM3.5 3v5h-1.127l-1.266-5h2.393zM10.5 13c-0.829 0-1.5 0.672-1.5 1.5s0.671 1.5 1.5 1.5 1.5-0.672 1.5-1.5-0.671-1.5-1.5-1.5zM10.5 15c-0.277 0-0.5-0.223-0.5-0.5s0.223-0.5 0.5-0.5 0.5 0.223 0.5 0.5-0.223 0.5-0.5 0.5zM3.5 13c-0.829 0-1.5 0.672-1.5 1.5s0.671 1.5 1.5 1.5 1.5-0.672 1.5-1.5-0.671-1.5-1.5-1.5zM3.5 15c-0.276 0-0.5-0.223-0.5-0.5s0.224-0.5 0.5-0.5 0.5 0.223 0.5 0.5-0.224 0.5-0.5 0.5z"></path>
</symbol>
<symbol id="icon-eye" viewBox="0 0 24 24">
<path d="M0.106 11.553c-0.136 0.274-0.146 0.603 0 0.894 0 0 0.396 0.789 1.12 1.843 0.451 0.656 1.038 1.432 1.757 2.218 0.894 0.979 2.004 1.987 3.319 2.8 1.595 0.986 3.506 1.692 5.698 1.692s4.103-0.706 5.698-1.692c1.315-0.813 2.425-1.821 3.319-2.8 0.718-0.786 1.306-1.562 1.757-2.218 0.724-1.054 1.12-1.843 1.12-1.843 0.136-0.274 0.146-0.603 0-0.894 0 0-0.396-0.789-1.12-1.843-0.451-0.656-1.038-1.432-1.757-2.218-0.894-0.979-2.004-1.987-3.319-2.8-1.595-0.986-3.506-1.692-5.698-1.692s-4.103 0.706-5.698 1.692c-1.315 0.813-2.425 1.821-3.319 2.8-0.719 0.786-1.306 1.561-1.757 2.218-0.724 1.054-1.12 1.843-1.12 1.843zM2.14 12c0.163-0.281 0.407-0.681 0.734-1.158 0.41-0.596 0.94-1.296 1.585-2.001 0.805-0.881 1.775-1.756 2.894-2.448 1.35-0.834 2.901-1.393 4.647-1.393s3.297 0.559 4.646 1.393c1.119 0.692 2.089 1.567 2.894 2.448 0.644 0.705 1.175 1.405 1.585 2.001 0.328 0.477 0.572 0.876 0.734 1.158-0.163 0.281-0.407 0.681-0.734 1.158-0.41 0.596-0.94 1.296-1.585 2.001-0.805 0.881-1.775 1.756-2.894 2.448-1.349 0.834-2.9 1.393-4.646 1.393s-3.297-0.559-4.646-1.393c-1.119-0.692-2.089-1.567-2.894-2.448-0.644-0.705-1.175-1.405-1.585-2.001-0.328-0.477-0.572-0.877-0.735-1.158zM16 12c0-1.104-0.449-2.106-1.172-2.828s-1.724-1.172-2.828-1.172-2.106 0.449-2.828 1.172-1.172 1.724-1.172 2.828 0.449 2.106 1.172 2.828 1.724 1.172 2.828 1.172 2.106-0.449 2.828-1.172 1.172-1.724 1.172-2.828zM14 12c0 0.553-0.223 1.051-0.586 1.414s-0.861 0.586-1.414 0.586-1.051-0.223-1.414-0.586-0.586-0.861-0.586-1.414 0.223-1.051 0.586-1.414 0.861-0.586 1.414-0.586 1.051 0.223 1.414 0.586 0.586 0.861 0.586 1.414z"></path>
</symbol>
<symbol id="icon-eye-off" viewBox="0 0 24 24">
<path d="M10.128 5.214c0.651-0.152 1.296-0.221 1.86-0.214 1.758 0 3.309 0.559 4.658 1.393 1.119 0.692 2.089 1.567 2.894 2.448 0.644 0.705 1.175 1.405 1.585 2.001 0.327 0.475 0.57 0.874 0.733 1.155-0.546 0.953-1.16 1.821-1.778 2.542-0.359 0.419-0.311 1.051 0.108 1.41s1.051 0.311 1.41-0.108c0.818-0.954 1.611-2.112 2.283-3.37 0.148-0.279 0.163-0.618 0.013-0.919 0 0-0.396-0.789-1.12-1.843-0.451-0.656-1.038-1.432-1.757-2.218-0.894-0.979-2.004-1.987-3.319-2.8-1.595-0.985-3.506-1.691-5.686-1.691-0.734-0.009-1.54 0.079-2.34 0.266-0.538 0.126-0.872 0.664-0.746 1.202s0.664 0.872 1.202 0.746zM10.027 11.442l2.531 2.531c-0.182 0.061-0.372 0.094-0.563 0.101-0.513 0.018-1.030-0.159-1.434-0.536s-0.617-0.88-0.635-1.393c-0.008-0.238 0.025-0.476 0.101-0.704zM5.983 7.397l2.553 2.553c-0.434 0.691-0.636 1.484-0.608 2.266 0.036 1.022 0.463 2.033 1.271 2.785s1.846 1.107 2.868 1.071c0.692-0.024 1.379-0.228 1.984-0.608l2.322 2.322c-1.378 0.799-2.895 1.196-4.384 1.214-1.734 0-3.285-0.559-4.634-1.393-1.119-0.692-2.089-1.567-2.894-2.448-0.644-0.705-1.175-1.405-1.585-2.001-0.326-0.475-0.57-0.873-0.732-1.154 1.050-1.822 2.376-3.379 3.841-4.607zM0.293 1.707l4.271 4.271c-1.731 1.479-3.269 3.358-4.445 5.549-0.148 0.279-0.164 0.619-0.013 0.92 0 0 0.396 0.789 1.12 1.843 0.451 0.656 1.038 1.432 1.757 2.218 0.894 0.979 2.004 1.987 3.319 2.8 1.595 0.986 3.506 1.692 5.71 1.692 1.993-0.024 4.019-0.601 5.815-1.759l4.466 4.466c0.391 0.391 1.024 0.391 1.414 0s0.391-1.024 0-1.414l-8.876-8.876c-0.002-0.002-0.005-0.005-0.007-0.007l-4.209-4.21c-0.008-0.007-0.016-0.016-0.024-0.024l-8.884-8.883c-0.391-0.391-1.024-0.391-1.414 0s-0.391 1.024 0 1.414z"></path>
</symbol>
<symbol id="icon-clock" viewBox="0 0 24 24">
<path d="M23 12c0-3.037-1.232-5.789-3.222-7.778s-4.741-3.222-7.778-3.222-5.789 1.232-7.778 3.222-3.222 4.741-3.222 7.778 1.232 5.789 3.222 7.778 4.741 3.222 7.778 3.222 5.789-1.232 7.778-3.222 3.222-4.741 3.222-7.778zM21 12c0 2.486-1.006 4.734-2.636 6.364s-3.878 2.636-6.364 2.636-4.734-1.006-6.364-2.636-2.636-3.878-2.636-6.364 1.006-4.734 2.636-6.364 3.878-2.636 6.364-2.636 4.734 1.006 6.364 2.636 2.636 3.878 2.636 6.364zM11 6v6c0 0.389 0.222 0.727 0.553 0.894l4 2c0.494 0.247 1.095 0.047 1.342-0.447s0.047-1.095-0.447-1.342l-3.448-1.723v-5.382c0-0.552-0.448-1-1-1s-1 0.448-1 1z"></path>
</symbol>
<symbol id="icon-phone-call" viewBox="0 0 24 24">
<path d="M5.981 9.141c0.184-0.943 0.683-1.74 1.374-2.31 0.51-0.42 1.124-0.716 1.793-0.852 0.541-0.109 0.891-0.637 0.782-1.178s-0.637-0.891-1.178-0.782c-0.992 0.2-1.907 0.64-2.669 1.269-1.036 0.854-1.789 2.057-2.064 3.47-0.106 0.542 0.248 1.067 0.79 1.173s1.067-0.248 1.173-0.79zM1.994 9.060c0.222-2 1.162-3.743 2.544-5.005 1.224-1.118 2.794-1.858 4.519-2.062 0.548-0.065 0.941-0.562 0.876-1.11s-0.562-0.941-1.11-0.876c-2.147 0.253-4.106 1.176-5.634 2.571-1.728 1.578-2.906 3.762-3.183 6.261-0.061 0.549 0.335 1.043 0.883 1.104s1.043-0.335 1.104-0.883zM16.92 1c-0.714-0.016-1.404 0.236-1.943 0.673-0.566 0.46-0.967 1.129-1.080 1.925-0.098 0.8-0.314 1.695-0.646 2.586-0.159 0.433-0.218 0.893-0.174 1.344 0.064 0.663 0.349 1.307 0.855 1.819l0.72 0.72c-1.117 1.77-2.667 3.36-4.589 4.583l-0.726-0.726c-0.33-0.322-0.726-0.563-1.156-0.707-0.632-0.212-1.336-0.214-2.011 0.039-0.753 0.289-1.644 0.518-2.595 0.644-0.714 0.104-1.345 0.456-1.804 0.963-0.486 0.539-0.779 1.256-0.771 2.027v2.996c0 0.088 0.004 0.182 0.012 0.273 0.075 0.824 0.478 1.542 1.066 2.033s1.367 0.758 2.199 0.683c3.076-0.3 6.243-1.365 9.102-3.216 2.413-1.502 4.623-3.648 6.306-6.298 1.697-2.568 2.862-5.684 3.231-9.086 0.009-0.092 0.013-0.191 0.013-0.288-0.003-0.828-0.343-1.578-0.887-2.118s-1.297-0.873-2.121-0.87zM16.92 3h3c0.28-0.001 0.53 0.109 0.712 0.29s0.295 0.429 0.296 0.706c-0.336 3.149-1.391 5.961-2.912 8.263-1.543 2.428-3.537 4.359-5.694 5.702-2.62 1.697-5.481 2.655-8.238 2.924-0.268 0.024-0.526-0.064-0.724-0.229s-0.33-0.403-0.355-0.678l-0.005-3.088c-0.003-0.271 0.094-0.507 0.256-0.687 0.154-0.17 0.366-0.288 0.608-0.323 1.072-0.142 2.117-0.408 3.025-0.757 0.216-0.081 0.447-0.080 0.658-0.010 0.145 0.049 0.281 0.131 0.395 0.242l1.261 1.262c0.324 0.324 0.814 0.379 1.201 0.162 2.785-1.584 4.957-3.839 6.378-6.381 0.222-0.397 0.144-0.882-0.166-1.195l-1.27-1.27c-0.164-0.166-0.257-0.377-0.279-0.598-0.015-0.152 0.005-0.31 0.060-0.459 0.381-1.022 0.636-2.070 0.754-3.034 0.034-0.241 0.166-0.462 0.355-0.615 0.181-0.147 0.412-0.231 0.682-0.226z"></path>
</symbol>
<symbol id="icon-phone-call-right" viewBox="0 0 24 24">
<path d="M14.859 5.981c0.943 0.184 1.74 0.683 2.31 1.374 0.42 0.51 0.716 1.124 0.852 1.793 0.109 0.541 0.637 0.891 1.178 0.782s0.891-0.637 0.782-1.178c-0.2-0.992-0.64-1.907-1.269-2.669-0.854-1.036-2.057-1.789-3.47-2.064-0.542-0.106-1.067 0.248-1.173 0.79s0.248 1.067 0.79 1.173zM14.94 1.994c2 0.222 3.743 1.162 5.005 2.544 1.118 1.224 1.858 2.794 2.062 4.519 0.065 0.548 0.562 0.941 1.11 0.876s0.941-0.562 0.876-1.11c-0.253-2.147-1.176-4.106-2.571-5.634-1.578-1.728-3.762-2.906-6.261-3.183-0.549-0.061-1.043 0.335-1.104 0.883s0.335 1.043 0.883 1.104zM23 16.92c0.016-0.714-0.236-1.404-0.673-1.943-0.46-0.566-1.129-0.967-1.925-1.080-0.8-0.098-1.695-0.314-2.586-0.646-0.433-0.159-0.893-0.218-1.344-0.174-0.663 0.064-1.307 0.349-1.819 0.855l-0.72 0.72c-1.77-1.117-3.36-2.667-4.583-4.589l0.726-0.726c0.322-0.33 0.563-0.726 0.707-1.156 0.212-0.632 0.214-1.336-0.039-2.011-0.289-0.753-0.518-1.644-0.644-2.595-0.104-0.714-0.456-1.345-0.963-1.804-0.539-0.486-1.256-0.779-2.027-0.771h-2.996c-0.088 0-0.182 0.004-0.273 0.012-0.824 0.075-1.542 0.478-2.033 1.066s-0.758 1.367-0.683 2.199c0.3 3.076 1.365 6.243 3.216 9.102 1.502 2.413 3.648 4.623 6.298 6.306 2.568 1.697 5.684 2.862 9.086 3.231 0.092 0.009 0.191 0.013 0.288 0.013 0.828-0.003 1.578-0.343 2.118-0.887s0.873-1.297 0.87-2.121zM21 16.92v3c0.001 0.28-0.109 0.53-0.29 0.712s-0.429 0.295-0.706 0.296c-3.149-0.336-5.961-1.391-8.263-2.912-2.428-1.543-4.359-3.537-5.702-5.694-1.697-2.62-2.655-5.481-2.924-8.238-0.024-0.268 0.064-0.526 0.229-0.724s0.403-0.33 0.678-0.355l3.088-0.005c0.271-0.003 0.507 0.094 0.687 0.256 0.17 0.154 0.288 0.366 0.323 0.608 0.142 1.072 0.408 2.117 0.757 3.025 0.081 0.216 0.080 0.447 0.010 0.658-0.049 0.145-0.131 0.281-0.242 0.395l-1.262 1.261c-0.324 0.324-0.379 0.814-0.162 1.201 1.584 2.785 3.839 4.957 6.381 6.378 0.397 0.222 0.882 0.144 1.195-0.166l1.27-1.27c0.166-0.164 0.377-0.257 0.598-0.279 0.152-0.015 0.31 0.005 0.459 0.060 1.022 0.381 2.070 0.636 3.034 0.754 0.241 0.034 0.462 0.166 0.615 0.355 0.147 0.181 0.231 0.412 0.226 0.682z"></path>
</symbol>
<symbol id="icon-pending_actions" viewBox="0 0 24 24">
<path d="M17.016 12q-1.406 0-2.531 0.68t-1.805 1.805-0.68 2.531q0 1.359 0.68 2.508t1.805 1.805 2.531 0.656q1.359 0 2.508-0.656t1.805-1.805 0.656-2.508q0-1.406-0.656-2.531t-1.805-1.805-2.508-0.68zM18.656 19.359l-2.156-2.156v-3.188h0.984v2.766l1.875 1.875zM18 3h-3.188q-0.328-0.891-1.078-1.453t-1.734-0.563-1.734 0.563-1.078 1.453h-3.188q-0.844 0-1.43 0.586t-0.586 1.43v15q0 0.797 0.586 1.383t1.43 0.586h6.094q-0.891-0.844-1.406-1.969h-4.688v-15h2.016v3h7.969v-3h2.016v5.063q1.031 0.141 2.016 0.609v-5.672q0-0.844-0.586-1.43t-1.43-0.586zM12 5.016q-0.422 0-0.703-0.305t-0.281-0.727q0-0.375 0.281-0.68t0.703-0.305 0.703 0.305 0.281 0.68q0 0.422-0.281 0.727t-0.703 0.305z"></path>
</symbol>
<symbol id="icon-user" viewBox="0 0 24 24">
<path d="M23.676 19.99c-1.677-4.008-4.914-5.873-7.423-6.739 1.12-1.537 1.733-3.792 1.757-6.55 0.041-4.656-3.798-5.921-5.833-5.938s-5.896 1.18-5.938 5.836c-0.024 2.757 0.55 5.021 1.642 6.579-2.523 0.82-5.795 2.632-7.54 6.608l-0.413 0.938 0.949 0.39c0.207 0.083 5.126 2.070 11.102 2.122 5.977 0.053 10.93-1.847 11.139-1.927l0.955-0.372-0.397-0.947zM12.153 2.763c0.399 0.008 3.89 0.178 3.857 3.921-0.026 2.996-0.841 5.274-2.232 6.251l-1.721 1.208-1.696-1.237c-1.375-1.002-2.149-3.294-2.122-6.29 0.033-3.744 3.527-3.852 3.914-3.853zM11.997 21.237c-4.046-0.035-7.648-1.047-9.341-1.607 1.83-3.205 4.931-4.457 7.312-4.937l2.089-0.421 2.081 0.456c2.373 0.523 5.452 1.829 7.227 5.064-1.699 0.532-5.31 1.481-9.368 1.445z"></path>
</symbol>
<symbol id="icon-location" viewBox="0 0 32 32">
<path d="M16.002 17.746c3.309 0 6-2.692 6-6s-2.691-6-6-6c-3.309 0-6 2.691-6 6s2.691 6 6 6zM16.002 6.746c2.758 0 5 2.242 5 5s-2.242 5-5 5c-2.758 0-5-2.242-5-5s2.242-5 5-5zM16 0c-6.618 0-12 5.316-12 12.001 0 7 6.001 14.161 10.376 19.194 0.016 0.020 0.718 0.805 1.586 0.805 0.002 0 0.073 0 0.077 0 0.867 0 1.57-0.785 1.586-0.805 4.377-5.033 10.377-12.193 10.377-19.194 0-6.685-5.383-12.001-12.002-12.001zM16.117 29.883c-0.021 0.020-0.082 0.064-0.135 0.098-0.010-0.027-0.084-0.086-0.129-0.133-3.665-4.217-9.853-11.334-9.853-17.847 0-5.514 4.487-10.001 10-10.001 5.516 0 10.002 4.487 10.002 10.002 0 6.512-6.188 13.629-9.885 17.881z"></path>
</symbol>
<symbol id="icon-truck" viewBox="0 0 32 32">
<path d="M7.168 11.445c0.186-0.278 0.498-0.445 0.832-0.445h1c0.553 0 1 0.447 1 1v6c0 0.553-0.447 1-1 1h-4c-0.553 0-1-0.447-1-1v-1.5c0-0.197 0.059-0.391 0.168-0.555l3-4.5zM5 18h4v-6h-1l-3 4.5v1.5zM0.504 15.336l4-6c0.558-0.837 1.492-1.336 2.496-1.336h4v-2c0-1.654 1.346-3 3-3h15c1.654 0 3 1.346 3 3v11c0 1.654-1.346 3-3 3v0 3c0 1.654-1.346 3-3 3h-1.142c-0.447 1.721-2 3-3.859 3-1.857 0-3.41-1.279-3.857-3h-5.282c-0.447 1.721-2 3-3.859 3-1.857 0-3.41-1.279-3.857-3h-1.144c-1.654 0-3-1.346-3-3v-6c0-0.594 0.174-1.17 0.504-1.664zM29 18c0.552 0 1-0.447 1-1v-11c0-0.553-0.448-1-1-1h-15c-0.553 0-1 0.447-1 1v11c0 0.553 0.447 1 1 1h15zM20.999 27c1.105 0 2-0.896 2-2s-0.895-2-2-2c-1.104 0-2 0.896-2 2s0.897 2 2 2zM8 27c1.105 0 2-0.896 2-2s-0.895-2-2-2c-1.104 0-2 0.896-2 2s0.896 2 2 2zM2 23c0 0.553 0.447 1 1 1h1.143c0.447-1.721 2-3 3.857-3 1.859 0 3.412 1.279 3.859 3h5.282c0.447-1.721 2-3 3.857-3 1.859 0 3.412 1.279 3.859 3h1.143c0.552 0 1-0.447 1-1v-3h-13c-1.654 0-3-1.346-3-3v-7h-4c-0.334 0-0.646 0.167-0.832 0.445l-4 6c-0.109 0.164-0.168 0.358-0.168 0.555v6z"></path>
</symbol>
<symbol id="icon-heart" viewBox="0 0 37 32">
<path d="M27 0c-2.476 0-4.856 0.921-6.704 2.595-0.702 0.635-1.303 1.357-1.796 2.154-0.493-0.797-1.094-1.519-1.796-2.155-1.848-1.673-4.228-2.594-6.704-2.594-5.514 0-10 4.486-10 10 0 3.722 1.158 6.66 3.871 9.825 3.942 4.6 13.919 11.62 14.342 11.917 0.086 0.061 0.187 0.091 0.287 0.091s0.201-0.030 0.287-0.091c0.423-0.297 10.4-7.317 14.343-11.917 2.712-3.165 3.87-6.103 3.87-9.825 0-5.514-4.486-10-10-10zM32.371 19.175c-3.495 4.076-12.18 10.341-13.871 11.545-1.691-1.204-10.376-7.469-13.87-11.545-2.545-2.969-3.63-5.713-3.63-9.175 0-4.963 4.038-9 9-9 2.227 0 4.37 0.829 6.032 2.335 0.838 0.76 1.518 1.656 2.020 2.664 0.17 0.34 0.726 0.34 0.896 0 0.502-1.008 1.182-1.904 2.020-2.663 1.662-1.507 3.805-2.336 6.032-2.336 4.962 0 9 4.037 9 9 0 3.462-1.085 6.206-3.629 9.175z"></path>
</symbol>
<symbol id="icon-document-checked" viewBox="0 0 32 32">
<path d="M17.257 29v0 0c1.009 1.221 2.535 2 4.243 2 3.038 0 5.5-2.462 5.5-5.5 0-2.137-1.219-3.99-3-4.9v-11.6l-6-7h-10.997c-1.106 0-2.003 0.898-2.003 2.007v22.985c0 1.109 0.891 2.007 1.997 2.007h10.26zM16.6 28h-9.6c-0.545 0-1-0.446-1-0.995v-23.009c0-0.54 0.446-0.995 0.996-0.995h10.004v4.994c0 1.119 0.895 2.006 1.998 2.006h4.002v10.207c-0.477-0.135-0.98-0.207-1.5-0.207-3.038 0-5.5 2.462-5.5 5.5 0 0.9 0.216 1.75 0.6 2.5v0 0zM18 3.5l4.7 5.5h-3.703c-0.546 0-0.997-0.452-0.997-1.009v-4.491zM21.5 30v0c-2.485 0-4.5-2.015-4.5-4.5s2.015-4.5 4.5-4.5c2.485 0 4.5 2.015 4.5 4.5s-2.015 4.5-4.5 4.5zM21 28.243l-2.354-2.354 0.732-0.732 1.621 1.621 3.121-3.121 0.732 0.732-3.854 3.854z"></path>
</symbol>
<symbol id="icon-package" viewBox="0 0 32 32">
<path d="M19 13v7h-5v-7h-9v14h23v-14h-9zM15 5h-5.4l-4.375 7h8.775l1-7zM18 5l1 7h8.775l-4.375-7h-5.4zM4 12.5v-0.5l5-8h15l5 8v16h-25v-15.5zM16 5l-1 7h3l-1-7h-1zM15 13v6h3v-6h-3zM6 21v1h7v-1h-7zM6 25v1h7v-1h-7zM6 23v1h5v-1h-5z"></path>
</symbol>
<symbol id="icon-instagram" viewBox="0 0 24 28">
<path d="M16 14c0-2.203-1.797-4-4-4s-4 1.797-4 4 1.797 4 4 4 4-1.797 4-4zM18.156 14c0 3.406-2.75 6.156-6.156 6.156s-6.156-2.75-6.156-6.156 2.75-6.156 6.156-6.156 6.156 2.75 6.156 6.156zM19.844 7.594c0 0.797-0.641 1.437-1.437 1.437s-1.437-0.641-1.437-1.437 0.641-1.437 1.437-1.437 1.437 0.641 1.437 1.437zM12 4.156c-1.75 0-5.5-0.141-7.078 0.484-0.547 0.219-0.953 0.484-1.375 0.906s-0.688 0.828-0.906 1.375c-0.625 1.578-0.484 5.328-0.484 7.078s-0.141 5.5 0.484 7.078c0.219 0.547 0.484 0.953 0.906 1.375s0.828 0.688 1.375 0.906c1.578 0.625 5.328 0.484 7.078 0.484s5.5 0.141 7.078-0.484c0.547-0.219 0.953-0.484 1.375-0.906s0.688-0.828 0.906-1.375c0.625-1.578 0.484-5.328 0.484-7.078s0.141-5.5-0.484-7.078c-0.219-0.547-0.484-0.953-0.906-1.375s-0.828-0.688-1.375-0.906c-1.578-0.625-5.328-0.484-7.078-0.484zM24 14c0 1.656 0.016 3.297-0.078 4.953-0.094 1.922-0.531 3.625-1.937 5.031s-3.109 1.844-5.031 1.937c-1.656 0.094-3.297 0.078-4.953 0.078s-3.297 0.016-4.953-0.078c-1.922-0.094-3.625-0.531-5.031-1.937s-1.844-3.109-1.937-5.031c-0.094-1.656-0.078-3.297-0.078-4.953s-0.016-3.297 0.078-4.953c0.094-1.922 0.531-3.625 1.937-5.031s3.109-1.844 5.031-1.937c1.656-0.094 3.297-0.078 4.953-0.078s3.297-0.016 4.953 0.078c1.922 0.094 3.625 0.531 5.031 1.937s1.844 3.109 1.937 5.031c0.094 1.656 0.078 3.297 0.078 4.953z"></path>
</symbol>
<symbol id="icon-telegram" viewBox="0 0 28 28">
<path d="M18.578 20.422l2.297-10.828c0.203-0.953-0.344-1.328-0.969-1.094l-13.5 5.203c-0.922 0.359-0.906 0.875-0.156 1.109l3.453 1.078 8.016-5.047c0.375-0.25 0.719-0.109 0.438 0.141l-6.484 5.859-0.25 3.563c0.359 0 0.516-0.156 0.703-0.344l1.687-1.625 3.5 2.578c0.641 0.359 1.094 0.172 1.266-0.594zM28 14c0 7.734-6.266 14-14 14s-14-6.266-14-14 6.266-14 14-14 14 6.266 14 14z"></path>
</symbol>
</defs>
</svg>
